<mxfile host="65bd71144e">
    <diagram id="UT7Pm2J7DE0Pi8K8PjyA" name="Page-1">
        <mxGraphModel dx="2038" dy="824" grid="0" gridSize="10" guides="1" tooltips="1" connect="1" arrows="1" fold="1" page="1" pageScale="1" pageWidth="850" pageHeight="1100" background="#ffffff" math="0" shadow="0">
            <root>
                <mxCell id="0"/>
                <mxCell id="1" parent="0"/>
                <mxCell id="3" value="&lt;font style=&quot;font-size: 15px;&quot;&gt;Consultant&lt;/font&gt;" style="text;html=1;strokeColor=none;fillColor=none;align=center;verticalAlign=middle;whiteSpace=wrap;rounded=0;labelBackgroundColor=#FFFFFF;fontColor=#18141d;" parent="1" vertex="1">
                    <mxGeometry x="223" y="12" width="78" height="30" as="geometry"/>
                </mxCell>
                <mxCell id="6" value="" style="edgeStyle=none;html=1;fontSize=15;fontColor=#18141d;strokeColor=#121212;" parent="1" source="4" edge="1">
                    <mxGeometry relative="1" as="geometry">
                        <mxPoint x="439" y="124" as="targetPoint"/>
                    </mxGeometry>
                </mxCell>
                <mxCell id="4" value="new user" style="ellipse;whiteSpace=wrap;html=1;labelBackgroundColor=#FFFFFF;strokeColor=#0d0c0c;fontSize=15;fontColor=#18141d;fillColor=#ffffff;" parent="1" vertex="1">
                    <mxGeometry x="239" y="84" width="120" height="80" as="geometry"/>
                </mxCell>
                <mxCell id="8" value="" style="edgeStyle=none;html=1;strokeColor=#121212;fontSize=15;fontColor=#18141d;" parent="1" source="5" target="7" edge="1">
                    <mxGeometry relative="1" as="geometry"/>
                </mxCell>
                <mxCell id="5" value="sign up" style="whiteSpace=wrap;html=1;fontSize=15;fillColor=#ffffff;strokeColor=#0d0c0c;fontColor=#18141d;labelBackgroundColor=#FFFFFF;" parent="1" vertex="1">
                    <mxGeometry x="439" y="94" width="120" height="60" as="geometry"/>
                </mxCell>
                <mxCell id="7" value="" style="whiteSpace=wrap;html=1;fontSize=15;fillColor=#ffffff;strokeColor=#0d0c0c;fontColor=#18141d;labelBackgroundColor=#FFFFFF;" parent="1" vertex="1">
                    <mxGeometry x="360.5" y="236" width="277" height="352" as="geometry"/>
                </mxCell>
                <mxCell id="10" value="Last Name" style="text;html=1;strokeColor=none;fillColor=none;align=center;verticalAlign=middle;whiteSpace=wrap;rounded=0;labelBackgroundColor=#FFFFFF;fontSize=15;fontColor=#18141d;" parent="1" vertex="1">
                    <mxGeometry x="401" y="291" width="92" height="30" as="geometry"/>
                </mxCell>
                <mxCell id="12" value="First Name" style="text;html=1;strokeColor=none;fillColor=none;align=center;verticalAlign=middle;whiteSpace=wrap;rounded=0;labelBackgroundColor=#FFFFFF;fontSize=15;fontColor=#18141d;" parent="1" vertex="1">
                    <mxGeometry x="401" y="257" width="92" height="30" as="geometry"/>
                </mxCell>
                <mxCell id="13" value="Service offerred" style="text;html=1;strokeColor=none;fillColor=none;align=center;verticalAlign=middle;whiteSpace=wrap;rounded=0;labelBackgroundColor=#FFFFFF;fontSize=15;fontColor=#18141d;" parent="1" vertex="1">
                    <mxGeometry x="405" y="321" width="109" height="30" as="geometry"/>
                </mxCell>
                <mxCell id="14" value="Years in service" style="text;html=1;strokeColor=none;fillColor=none;align=center;verticalAlign=middle;whiteSpace=wrap;rounded=0;labelBackgroundColor=#FFFFFF;fontSize=15;fontColor=#18141d;" parent="1" vertex="1">
                    <mxGeometry x="406" y="351" width="109" height="30" as="geometry"/>
                </mxCell>
                <mxCell id="15" value="Any other information you want to share with us" style="text;html=1;strokeColor=none;fillColor=none;align=left;verticalAlign=middle;whiteSpace=wrap;rounded=0;labelBackgroundColor=#FFFFFF;fontSize=15;fontColor=#18141d;" parent="1" vertex="1">
                    <mxGeometry x="406" y="447" width="213" height="30" as="geometry"/>
                </mxCell>
                <mxCell id="26" value="" style="rounded=0;whiteSpace=wrap;html=1;labelBackgroundColor=#FFFFFF;strokeColor=#373434;fontSize=15;fontColor=#18141d;fillColor=#ffffff;" parent="1" vertex="1">
                    <mxGeometry x="776" y="666" width="364" height="417" as="geometry"/>
                </mxCell>
                <mxCell id="16" value="Brief summary of information about yourself and services" style="text;html=1;strokeColor=none;fillColor=none;align=left;verticalAlign=middle;whiteSpace=wrap;rounded=0;labelBackgroundColor=#FFFFFF;fontSize=15;fontColor=#18141d;" parent="1" vertex="1">
                    <mxGeometry x="402.5" y="399" width="213" height="30" as="geometry"/>
                </mxCell>
                <mxCell id="17" value="Rates for difference modes of services eg phone call, online meeting, in person visit, consultant visit.&amp;nbsp; &amp;nbsp;" style="text;html=1;strokeColor=none;fillColor=none;align=left;verticalAlign=middle;whiteSpace=wrap;rounded=0;labelBackgroundColor=#FFFFFF;fontSize=15;fontColor=#18141d;" parent="1" vertex="1">
                    <mxGeometry x="405" y="491" width="208" height="77" as="geometry"/>
                </mxCell>
                <mxCell id="20" style="edgeStyle=none;html=1;exitX=1;exitY=0.5;exitDx=0;exitDy=0;strokeColor=#121212;fontSize=15;fontColor=#18141d;" parent="1" source="18" target="19" edge="1">
                    <mxGeometry relative="1" as="geometry"/>
                </mxCell>
                <mxCell id="41" style="edgeStyle=orthogonalEdgeStyle;html=1;exitX=1;exitY=0.5;exitDx=0;exitDy=0;entryX=0;entryY=0.5;entryDx=0;entryDy=0;strokeColor=#121212;fontSize=15;fontColor=#18141d;" parent="1" source="18" target="22" edge="1">
                    <mxGeometry relative="1" as="geometry"/>
                </mxCell>
                <mxCell id="42" style="edgeStyle=orthogonalEdgeStyle;html=1;exitX=1;exitY=0.5;exitDx=0;exitDy=0;entryX=0;entryY=0.5;entryDx=0;entryDy=0;strokeColor=#121212;fontSize=15;fontColor=#18141d;" parent="1" source="18" target="23" edge="1">
                    <mxGeometry relative="1" as="geometry"/>
                </mxCell>
                <mxCell id="18" value="LOGIN" style="ellipse;whiteSpace=wrap;html=1;labelBackgroundColor=#FFFFFF;strokeColor=#0d0c0c;fontSize=15;fontColor=#18141d;fillColor=#ffffff;" parent="1" vertex="1">
                    <mxGeometry x="239" y="722" width="120" height="80" as="geometry"/>
                </mxCell>
                <mxCell id="43" style="edgeStyle=orthogonalEdgeStyle;html=1;exitX=1;exitY=0.5;exitDx=0;exitDy=0;entryX=0.002;entryY=0.228;entryDx=0;entryDy=0;entryPerimeter=0;strokeColor=#121212;fontSize=15;fontColor=#18141d;startArrow=none;" parent="1" source="83" target="26" edge="1">
                    <mxGeometry relative="1" as="geometry"/>
                </mxCell>
                <mxCell id="19" value="Requests" style="whiteSpace=wrap;html=1;fontSize=15;fillColor=#ffffff;strokeColor=#0d0c0c;fontColor=#18141d;labelBackgroundColor=#FFFFFF;" parent="1" vertex="1">
                    <mxGeometry x="446" y="732" width="120" height="60" as="geometry"/>
                </mxCell>
                <mxCell id="44" style="edgeStyle=orthogonalEdgeStyle;html=1;exitX=1;exitY=0.5;exitDx=0;exitDy=0;entryX=-0.019;entryY=0.514;entryDx=0;entryDy=0;entryPerimeter=0;strokeColor=#121212;fontSize=15;fontColor=#18141d;" parent="1" source="22" target="25" edge="1">
                    <mxGeometry relative="1" as="geometry"/>
                </mxCell>
                <mxCell id="22" value="Customer Records" style="rounded=0;whiteSpace=wrap;html=1;labelBackgroundColor=#FFFFFF;strokeColor=#0d0c0c;fontSize=15;fontColor=#18141d;fillColor=#ffffff;" parent="1" vertex="1">
                    <mxGeometry x="434" y="1173" width="120" height="60" as="geometry"/>
                </mxCell>
                <mxCell id="47" style="edgeStyle=orthogonalEdgeStyle;html=1;exitX=1;exitY=0.5;exitDx=0;exitDy=0;entryX=0;entryY=0.5;entryDx=0;entryDy=0;strokeColor=#121212;fontSize=15;fontColor=#18141d;" parent="1" source="23" target="46" edge="1">
                    <mxGeometry relative="1" as="geometry"/>
                </mxCell>
                <mxCell id="23" value="Sessions" style="rounded=0;whiteSpace=wrap;html=1;labelBackgroundColor=#FFFFFF;strokeColor=#0d0c0c;fontSize=15;fontColor=#18141d;fillColor=#ffffff;" parent="1" vertex="1">
                    <mxGeometry x="434" y="1512" width="120" height="60" as="geometry"/>
                </mxCell>
                <mxCell id="25" value="" style="rounded=0;whiteSpace=wrap;html=1;labelBackgroundColor=#FFFFFF;strokeColor=#0d0c0c;fontSize=15;fontColor=#18141d;fillColor=#ffffff;" parent="1" vertex="1">
                    <mxGeometry x="784" y="1158.5" width="275" height="111.5" as="geometry"/>
                </mxCell>
                <mxCell id="39" style="edgeStyle=none;html=1;exitX=0.5;exitY=1;exitDx=0;exitDy=0;entryX=0.5;entryY=0;entryDx=0;entryDy=0;strokeColor=#121212;fontSize=15;fontColor=#18141d;" parent="1" source="27" target="28" edge="1">
                    <mxGeometry relative="1" as="geometry"/>
                </mxCell>
                <mxCell id="27" value="user request stating the type of service wanted&amp;nbsp;&amp;nbsp;" style="rounded=0;whiteSpace=wrap;html=1;labelBackgroundColor=#FFFFFF;strokeColor=#0d0c0c;fontSize=15;fontColor=#18141d;fillColor=#ffffff;align=center;" parent="1" vertex="1">
                    <mxGeometry x="797" y="700" width="304" height="71" as="geometry"/>
                </mxCell>
                <mxCell id="28" value="Accept" style="rhombus;whiteSpace=wrap;html=1;fontSize=15;align=center;fillColor=#ffffff;strokeColor=#0d0c0c;fontColor=#18141d;rounded=0;labelBackgroundColor=#FFFFFF;" parent="1" vertex="1">
                    <mxGeometry x="909" y="846.5" width="80" height="80" as="geometry"/>
                </mxCell>
                <mxCell id="31" value="" style="edgeStyle=none;html=1;strokeColor=#121212;fontSize=15;fontColor=#18141d;" parent="1" source="28" edge="1">
                    <mxGeometry relative="1" as="geometry">
                        <mxPoint x="1294" y="891.1982378854625" as="targetPoint"/>
                    </mxGeometry>
                </mxCell>
                <mxCell id="34" value="&lt;span style=&quot;background-color: rgb(229, 228, 231);&quot;&gt;True&lt;/span&gt;" style="edgeLabel;html=1;align=center;verticalAlign=middle;resizable=0;points=[];fontSize=15;fontColor=#18141d;" parent="31" vertex="1" connectable="0">
                    <mxGeometry x="-0.4125" y="-4" relative="1" as="geometry">
                        <mxPoint x="4" y="-4" as="offset"/>
                    </mxGeometry>
                </mxCell>
                <mxCell id="33" value="" style="edgeStyle=none;html=1;strokeColor=#121212;fontSize=15;fontColor=#18141d;" parent="1" source="28" target="32" edge="1">
                    <mxGeometry relative="1" as="geometry"/>
                </mxCell>
                <mxCell id="35" value="&lt;span style=&quot;background-color: rgb(239, 234, 246);&quot;&gt;False&lt;/span&gt;" style="edgeLabel;html=1;align=center;verticalAlign=middle;resizable=0;points=[];fontSize=15;fontColor=#18141d;" parent="33" vertex="1" connectable="0">
                    <mxGeometry x="-0.1221" y="-1" relative="1" as="geometry">
                        <mxPoint as="offset"/>
                    </mxGeometry>
                </mxCell>
                <mxCell id="32" value="Click option why" style="whiteSpace=wrap;html=1;fontSize=15;align=center;fillColor=#ffffff;strokeColor=#0d0c0c;fontColor=#18141d;rounded=0;labelBackgroundColor=#FFFFFF;" parent="1" vertex="1">
                    <mxGeometry x="889" y="995" width="120" height="60" as="geometry"/>
                </mxCell>
                <mxCell id="45" value="History of past session with user name and date and conclusion&amp;nbsp;" style="rounded=0;whiteSpace=wrap;html=1;labelBackgroundColor=#efeaf6;strokeColor=#373434;fontSize=15;fontColor=#18141d;fillColor=#ffffff;" parent="1" vertex="1">
                    <mxGeometry x="814" y="1173" width="214" height="60" as="geometry"/>
                </mxCell>
                <mxCell id="46" value="" style="rounded=0;whiteSpace=wrap;html=1;labelBackgroundColor=#efeaf6;strokeColor=#373434;fontSize=15;fontColor=#18141d;fillColor=#ffffff;" parent="1" vertex="1">
                    <mxGeometry x="743" y="1405" width="367" height="449" as="geometry"/>
                </mxCell>
                <mxCell id="52" style="edgeStyle=orthogonalEdgeStyle;html=1;exitX=1;exitY=0.5;exitDx=0;exitDy=0;entryX=0;entryY=0.5;entryDx=0;entryDy=0;strokeColor=#121212;fontSize=15;fontColor=#18141d;" parent="1" source="48" target="51" edge="1">
                    <mxGeometry relative="1" as="geometry"/>
                </mxCell>
                <mxCell id="48" value="Chats" style="rounded=1;whiteSpace=wrap;html=1;labelBackgroundColor=#efeaf6;strokeColor=#373434;fontSize=15;fontColor=#18141d;fillColor=#ffffff;" parent="1" vertex="1">
                    <mxGeometry x="770" y="1429" width="308" height="77" as="geometry"/>
                </mxCell>
                <mxCell id="75" style="edgeStyle=orthogonalEdgeStyle;html=1;exitX=1;exitY=0.5;exitDx=0;exitDy=0;entryX=0;entryY=0.5;entryDx=0;entryDy=0;strokeColor=#121212;fontSize=15;fontColor=#18141d;" parent="1" source="49" target="74" edge="1">
                    <mxGeometry relative="1" as="geometry"/>
                </mxCell>
                <mxCell id="49" value="video Bookings" style="rounded=1;whiteSpace=wrap;html=1;labelBackgroundColor=#efeaf6;strokeColor=#373434;fontSize=15;fontColor=#18141d;fillColor=#ffffff;" parent="1" vertex="1">
                    <mxGeometry x="772.5" y="1533" width="308" height="77" as="geometry"/>
                </mxCell>
                <mxCell id="90" style="edgeStyle=orthogonalEdgeStyle;html=1;exitX=1;exitY=0.5;exitDx=0;exitDy=0;strokeColor=#121212;fontSize=15;fontColor=#18141d;" parent="1" source="50" target="89" edge="1">
                    <mxGeometry relative="1" as="geometry">
                        <Array as="points">
                            <mxPoint x="1268" y="1676"/>
                            <mxPoint x="1268" y="2091"/>
                        </Array>
                    </mxGeometry>
                </mxCell>
                <mxCell id="50" value="NOTES" style="rounded=1;whiteSpace=wrap;html=1;labelBackgroundColor=#efeaf6;strokeColor=#373434;fontSize=15;fontColor=#18141d;fillColor=#ffffff;" parent="1" vertex="1">
                    <mxGeometry x="772.5" y="1637" width="308" height="77" as="geometry"/>
                </mxCell>
                <mxCell id="55" style="edgeStyle=orthogonalEdgeStyle;html=1;exitX=1;exitY=0.5;exitDx=0;exitDy=0;entryX=0;entryY=0.5;entryDx=0;entryDy=0;strokeColor=#121212;fontSize=15;fontColor=#18141d;" parent="1" source="51" target="54" edge="1">
                    <mxGeometry relative="1" as="geometry"/>
                </mxCell>
                <mxCell id="51" value="&lt;span style=&quot;background-color: rgb(255, 255, 255);&quot;&gt;integration with a chat api or package&lt;/span&gt;" style="rounded=0;whiteSpace=wrap;html=1;labelBackgroundColor=#efeaf6;strokeColor=#373434;fontSize=15;fontColor=#18141d;fillColor=#ffffff;" parent="1" vertex="1">
                    <mxGeometry x="1427" y="1314" width="120" height="60" as="geometry"/>
                </mxCell>
                <mxCell id="54" value="" style="rounded=0;whiteSpace=wrap;html=1;labelBackgroundColor=#ffffff;strokeColor=#373434;fontSize=15;fontColor=#18141d;fillColor=#ffffff;" parent="1" vertex="1">
                    <mxGeometry x="1638" y="1305" width="277" height="254" as="geometry"/>
                </mxCell>
                <mxCell id="63" value="" style="edgeStyle=orthogonalEdgeStyle;html=1;strokeColor=#121212;fontSize=15;fontColor=#18141d;" parent="1" source="56" target="62" edge="1">
                    <mxGeometry relative="1" as="geometry"/>
                </mxCell>
                <mxCell id="80" style="edgeStyle=orthogonalEdgeStyle;html=1;exitX=1;exitY=0.75;exitDx=0;exitDy=0;strokeColor=#121212;fontSize=15;fontColor=#18141d;" parent="1" source="56" target="79" edge="1">
                    <mxGeometry relative="1" as="geometry"/>
                </mxCell>
                <mxCell id="56" value="Rachel&amp;nbsp; &lt;br&gt;Abuja Nigeria&lt;br&gt;Aquaculture&lt;br&gt;issue" style="rounded=0;whiteSpace=wrap;html=1;labelBackgroundColor=#ffffff;strokeColor=#373434;fontSize=15;fontColor=#18141d;fillColor=#ffffff;" parent="1" vertex="1">
                    <mxGeometry x="1654" y="1346" width="235" height="85" as="geometry"/>
                </mxCell>
                <mxCell id="58" value="List of all chats" style="text;html=1;strokeColor=none;fillColor=none;align=center;verticalAlign=middle;whiteSpace=wrap;rounded=0;labelBackgroundColor=#ffffff;fontSize=15;fontColor=#18141d;" parent="1" vertex="1">
                    <mxGeometry x="1651" y="1314" width="116" height="30" as="geometry"/>
                </mxCell>
                <mxCell id="61" style="edgeStyle=orthogonalEdgeStyle;html=1;exitX=0.5;exitY=1;exitDx=0;exitDy=0;entryX=0.941;entryY=0.006;entryDx=0;entryDy=0;entryPerimeter=0;strokeColor=#121212;fontSize=15;fontColor=#18141d;" parent="1" source="60" target="46" edge="1">
                    <mxGeometry relative="1" as="geometry"/>
                </mxCell>
                <mxCell id="60" value="Added to Session state depending&lt;br&gt;&amp;nbsp;on the type of service wanted" style="shape=parallelogram;perimeter=parallelogramPerimeter;whiteSpace=wrap;html=1;fixedSize=1;labelBackgroundColor=#ffffff;strokeColor=#373434;fontSize=15;fontColor=#18141d;fillColor=#ffffff;" parent="1" vertex="1">
                    <mxGeometry x="1282" y="869" width="379.5" height="60" as="geometry"/>
                </mxCell>
                <mxCell id="65" style="edgeStyle=orthogonalEdgeStyle;html=1;exitX=1;exitY=0.5;exitDx=0;exitDy=0;entryX=1;entryY=0.5;entryDx=0;entryDy=0;strokeColor=#121212;fontSize=15;fontColor=#18141d;" parent="1" source="62" target="25" edge="1">
                    <mxGeometry relative="1" as="geometry">
                        <Array as="points">
                            <mxPoint x="2031" y="1496"/>
                            <mxPoint x="2031" y="1214"/>
                        </Array>
                    </mxGeometry>
                </mxCell>
                <mxCell id="62" value="start/end chat" style="rhombus;whiteSpace=wrap;html=1;fontSize=15;fillColor=#ffffff;strokeColor=#373434;fontColor=#18141d;rounded=0;labelBackgroundColor=#ffffff;" parent="1" vertex="1">
                    <mxGeometry x="1714.25" y="1451" width="114.5" height="89.5" as="geometry"/>
                </mxCell>
                <mxCell id="71" value="end chat session" style="rounded=0;whiteSpace=wrap;html=1;labelBackgroundColor=#ffffff;strokeColor=#373434;fontSize=15;fontColor=#18141d;fillColor=#ffffff;" parent="1" vertex="1">
                    <mxGeometry x="1937" y="1462" width="120" height="60" as="geometry"/>
                </mxCell>
                <mxCell id="82" style="edgeStyle=orthogonalEdgeStyle;html=1;exitX=1;exitY=0.5;exitDx=0;exitDy=0;entryX=-0.007;entryY=0.47;entryDx=0;entryDy=0;entryPerimeter=0;strokeColor=#121212;fontSize=15;fontColor=#18141d;" parent="1" source="74" target="81" edge="1">
                    <mxGeometry relative="1" as="geometry"/>
                </mxCell>
                <mxCell id="74" value="" style="rounded=0;whiteSpace=wrap;html=1;labelBackgroundColor=#ffffff;strokeColor=#373434;fontSize=15;fontColor=#18141d;fillColor=#ffffff;" parent="1" vertex="1">
                    <mxGeometry x="1631" y="1623" width="304" height="274" as="geometry"/>
                </mxCell>
                <mxCell id="76" value="vidoe call link&lt;br&gt;Date /time&lt;br&gt;Category/farming type&lt;br&gt;issue" style="rounded=0;whiteSpace=wrap;html=1;labelBackgroundColor=#ffffff;strokeColor=#373434;fontSize=15;fontColor=#18141d;fillColor=#ffffff;" parent="1" vertex="1">
                    <mxGeometry x="1661.5" y="1653" width="235" height="85" as="geometry"/>
                </mxCell>
                <mxCell id="78" value="Goto google meet" style="shape=parallelogram;perimeter=parallelogramPerimeter;whiteSpace=wrap;html=1;fixedSize=1;labelBackgroundColor=#ffffff;strokeColor=#373434;fontSize=15;fontColor=#18141d;fillColor=#ffffff;" parent="1" vertex="1">
                    <mxGeometry x="1680" y="1776" width="176" height="60" as="geometry"/>
                </mxCell>
                <mxCell id="79" value="sends Notifications&lt;br&gt;&amp;nbsp;when there a response" style="shape=parallelogram;perimeter=parallelogramPerimeter;whiteSpace=wrap;html=1;fixedSize=1;labelBackgroundColor=#ffffff;strokeColor=#373434;fontSize=15;fontColor=#18141d;fillColor=#ffffff;" parent="1" vertex="1">
                    <mxGeometry x="2054" y="1333" width="214" height="60" as="geometry"/>
                </mxCell>
                <mxCell id="81" value="sends Notifications&lt;br&gt;&amp;nbsp;an horu to the schedules time" style="shape=parallelogram;perimeter=parallelogramPerimeter;whiteSpace=wrap;html=1;fixedSize=1;labelBackgroundColor=#ffffff;strokeColor=#373434;fontSize=15;fontColor=#18141d;fillColor=#ffffff;" parent="1" vertex="1">
                    <mxGeometry x="2039" y="1772" width="236" height="60" as="geometry"/>
                </mxCell>
                <mxCell id="85" value="" style="edgeStyle=orthogonalEdgeStyle;html=1;exitX=1;exitY=0.5;exitDx=0;exitDy=0;entryX=0.002;entryY=0.228;entryDx=0;entryDy=0;entryPerimeter=0;strokeColor=#121212;fontSize=15;fontColor=#18141d;endArrow=none;" parent="1" source="19" target="83" edge="1">
                    <mxGeometry relative="1" as="geometry">
                        <mxPoint x="566" y="762.0000000000002" as="sourcePoint"/>
                        <mxPoint x="730.7280000000001" y="761.0759999999998" as="targetPoint"/>
                    </mxGeometry>
                </mxCell>
                <mxCell id="83" value="Calendly integration" style="rounded=0;whiteSpace=wrap;html=1;labelBackgroundColor=#ffffff;strokeColor=#373434;fontSize=15;fontColor=#18141d;fillColor=#ffffff;" parent="1" vertex="1">
                    <mxGeometry x="588" y="732" width="120" height="60" as="geometry"/>
                </mxCell>
                <mxCell id="89" value="" style="rounded=0;whiteSpace=wrap;html=1;labelBackgroundColor=#ffffff;strokeColor=#373434;fontSize=15;fontColor=#18141d;fillColor=#ffffff;" parent="1" vertex="1">
                    <mxGeometry x="1617" y="2065" width="361" height="116" as="geometry"/>
                </mxCell>
                <mxCell id="91" value="Short Notes for keeping information&amp;nbsp;&lt;br&gt;Date" style="rounded=0;whiteSpace=wrap;html=1;labelBackgroundColor=#ffffff;strokeColor=#373434;fontSize=15;fontColor=#18141d;fillColor=#ffffff;" parent="1" vertex="1">
                    <mxGeometry x="1670.5" y="2081" width="254" height="60" as="geometry"/>
                </mxCell>
                <mxCell id="96" style="edgeStyle=orthogonalEdgeStyle;html=1;exitX=0;exitY=0.5;exitDx=0;exitDy=0;entryX=0.992;entryY=0.665;entryDx=0;entryDy=0;entryPerimeter=0;fontColor=#0d0c0c;strokeColor=#1c1c1c;strokeWidth=3;" edge="1" parent="1" source="92" target="93">
                    <mxGeometry relative="1" as="geometry"/>
                </mxCell>
                <mxCell id="92" value="Settings" style="rounded=1;whiteSpace=wrap;html=1;labelBackgroundColor=#efeaf6;strokeColor=#373434;fontSize=15;fontColor=#18141d;fillColor=#ffffff;" vertex="1" parent="1">
                    <mxGeometry x="767" y="1741" width="308" height="77" as="geometry"/>
                </mxCell>
                <mxCell id="93" value="" style="rounded=0;whiteSpace=wrap;html=1;labelBackgroundColor=#efeaf6;strokeColor=#373434;fontSize=15;fontColor=#18141d;fillColor=#ffffff;" vertex="1" parent="1">
                    <mxGeometry x="304" y="1806" width="367" height="148" as="geometry"/>
                </mxCell>
                <mxCell id="94" value="&lt;font color=&quot;#0d0c0c&quot;&gt;account deatils&lt;/font&gt;" style="rounded=0;whiteSpace=wrap;html=1;fillColor=#ffffff;strokeColor=#1d1b1b;" vertex="1" parent="1">
                    <mxGeometry x="325" y="1825" width="120" height="60" as="geometry"/>
                </mxCell>
            </root>
        </mxGraphModel>
    </diagram>
</mxfile>